<svg viewBox="0 0 16 16" xmlns="http://www.w3.org/2000/svg" width="64" height="64">
    <rect x="0" y="0" width="16" height="16" fill="transparent"/>

    <rect x="0" y="7.71" width="16" height="6.86" fill="#666666" rx="1.14" ry="1.14"/>

    <rect x="1.14" y="8.86" width="2.29" height="1.14" fill="#BBBBBB" rx="0.57" ry="0.57"/>
    <rect x="5.43" y="8.86" width="2.29" height="1.14" fill="#BBBBBB" rx="0.57" ry="0.57"/>
    <rect x="9.71" y="8.86" width="2.29" height="1.14" fill="#BBBBBB" rx="0.57" ry="0.57"/>
    <rect x="14" y="8.86" width="2.29" height="1.14" fill="#BBBBBB" rx="0.57" ry="0.57"/>

    <rect x="1.14" y="11.14" width="2.29" height="1.14" fill="#BBBBBB" rx="0.57" ry="0.57"/>
    <rect x="5.43" y="11.14" width="2.29" height="1.14" fill="#BBBBBB" rx="0.57" ry="0.57"/>
    <rect x="9.71" y="11.14" width="2.29" height="1.14" fill="#BBBBBB" rx="0.57" ry="0.57"/>
    <rect x="14" y="11.14" width="2.29" height="1.14" fill="#BBBBBB" rx="0.57" ry="0.57"/>

    <rect x="3.43" y="13.43" width="9.14" height="1.14" fill="#BBBBBB" rx="0.57" ry="0.57"/>
    <circle cx="8" cy="6" r="4.57" fill="#FFC107"/>
    <circle cx="6.29" cy="4.86" r="0.86" fill="#000000"/>
    <circle cx="9.71" cy="4.86" r="0.86" fill="#000000"/>
    <path d="M 5.5 7.21 Q 8 8.7 10.5 7.21 L 10.5 8.21 Q 8 9.7 5.5 8.21 Z" fill="#000000"/>
</svg>
